<svg width="24" height="24" viewBox="0 0 24 24">
<path d="M4.98796 11.4074C4.98798 11.2732 5.01447 11.1403 5.06589 11.0164C5.11731 10.8925 5.19265 10.78 5.2876 10.6853C5.38256 10.5907 5.49522 10.5157 5.61916 10.4648C5.7431 10.4139 5.87586 10.388 6.00982 10.3886L7.70403 10.3941C7.97413 10.3941 8.2332 10.5017 8.4242 10.693C8.61521 10.8843 8.72253 11.1439 8.72253 11.4145V17.8322C8.91325 17.7755 9.15821 17.715 9.42624 17.6518C9.61243 17.608 9.77836 17.5024 9.89713 17.3523C10.0159 17.2021 10.0805 17.0161 10.0805 16.8245V8.86362C10.0805 8.59298 10.1878 8.33343 10.3788 8.14204C10.5697 7.95066 10.8288 7.84313 11.099 7.84307H12.7965C13.0666 7.84313 13.3257 7.95066 13.5167 8.14204C13.7077 8.33343 13.815 8.59298 13.815 8.86362V16.2521C13.815 16.2521 14.2401 16.0798 14.654 15.9047C14.8078 15.8396 14.9391 15.7305 15.0314 15.5911C15.1237 15.4517 15.173 15.2882 15.1732 15.1209V6.31274C15.1732 6.04216 15.2804 5.78265 15.4714 5.5913C15.6623 5.39996 15.9213 5.29245 16.1914 5.29239H17.889C18.1591 5.29239 18.4182 5.39988 18.6092 5.59124C18.8002 5.78259 18.9075 6.04212 18.9075 6.31274V13.5661C20.3793 12.4975 21.8707 11.2124 23.0543 9.66702C23.2261 9.44272 23.3397 9.17931 23.385 8.90033C23.4304 8.62136 23.4062 8.33544 23.3144 8.06813C22.7665 6.48895 21.8958 5.04173 20.7575 3.81908C19.6193 2.59646 18.2389 1.62532 16.7045 0.967831C15.1702 0.310348 13.5158 -0.0190064 11.8471 0.000847024C10.1784 0.0207002 8.53222 0.389324 7.01392 1.08313C5.4956 1.77693 4.13857 2.78063 3.02968 4.03001C1.92079 5.27937 1.08446 6.7469 0.5742 8.33869C0.0639436 9.93045 -0.108999 11.6114 0.0664374 13.274C0.241874 14.9366 0.761829 16.5441 1.59302 17.9938C1.73782 18.2439 1.95085 18.4474 2.20707 18.5804C2.46329 18.7134 2.75208 18.7704 3.03952 18.7447C3.36061 18.7164 3.7604 18.6763 4.23573 18.6204C4.44264 18.5969 4.63368 18.4979 4.77243 18.3423C4.9112 18.1868 4.98798 17.9855 4.98816 17.7769L4.98796 11.4074Z" fill="inherit"/>
<path d="M4.95068 21.7005C6.74002 23.0046 8.85463 23.7875 11.0605 23.9624C13.2664 24.137 15.4776 23.6972 17.4494 22.6911C19.4212 21.6849 21.0766 20.152 22.2328 18.2619C23.3888 16.3717 24.0004 14.1979 23.9998 11.9811C23.9998 11.7044 23.987 11.4308 23.9686 11.1587C19.5864 17.7064 11.495 20.7675 4.95106 21.6996" fill="inherit"/>
</svg>
