<svg width="24" height="24" viewBox="0 0 24 24">
<path d="M5.92801 12.4079L5.97601 12.3359L9.09601 7.46392C9.14401 7.39192 9.24001 7.39192 9.28801 7.48792C9.81601 8.66392 10.248 10.1039 10.056 11.0159C9.96001 11.3999 9.72001 11.9039 9.43201 12.3599C9.40801 12.4319 9.36001 12.5039 9.31201 12.5519C9.28801 12.5759 9.26401 12.5999 9.21601 12.5999H6.00001C5.92801 12.5759 5.88001 12.4799 5.92801 12.4079Z" fill="inherit"/>
<path fill-rule="evenodd" clip-rule="evenodd" d="M12 24C18.624 24 24 18.624 24 12C24 5.376 18.624 0 12 0C5.376 0 0 5.376 0 12C0 18.624 5.376 24 12 24ZM19.8241 14.0879V13.3199C19.8241 13.2479 19.7761 13.1999 19.6321 13.2719L15.9841 14.3279C15.9601 14.3279 15.9601 14.3279 15.9361 14.3519C15.6279 14.6783 15.3607 14.9225 15.2175 15.0534C15.1711 15.0958 15.1377 15.1263 15.1201 15.1439C14.9041 15.3359 14.6161 15.4319 14.3281 15.4319H13.0081V14.0879H14.0641C14.0881 14.0879 14.1121 14.0879 14.1361 14.0639L14.2801 13.9439C14.3521 13.8959 14.4241 13.8239 14.4961 13.7519L14.4961 13.7519C14.5453 13.7191 14.5833 13.6751 14.6178 13.6352C14.6337 13.6167 14.6489 13.5991 14.6641 13.5839C14.7133 13.5511 14.7513 13.5071 14.7858 13.4672C14.8017 13.4487 14.8169 13.4311 14.8321 13.4159C14.8681 13.3679 14.9101 13.3199 14.9521 13.2719C14.9941 13.2239 15.0361 13.1759 15.0721 13.1279C15.1441 13.0559 15.1921 12.9839 15.2401 12.9119C15.2641 12.8759 15.2941 12.8399 15.3241 12.8039C15.3541 12.7679 15.3841 12.7319 15.4081 12.6959C15.4249 12.6454 15.4536 12.6067 15.4858 12.5632C15.4995 12.5448 15.5138 12.5254 15.5281 12.5039C15.5761 12.4319 15.6241 12.3599 15.6481 12.3119L15.6481 12.3119C15.7441 12.1439 15.8401 11.9759 15.9121 11.8079C15.9488 11.7346 15.9714 11.6613 15.9908 11.5986C15.9968 11.5793 16.0024 11.5609 16.0081 11.5439C16.0201 11.4959 16.0321 11.4539 16.0441 11.4119C16.0561 11.3699 16.0681 11.3279 16.0801 11.2799C16.0813 11.2691 16.0825 11.2583 16.0837 11.2475C16.1064 11.0446 16.1269 10.8611 16.1041 10.6559C16.1041 10.5839 16.1041 10.5119 16.0801 10.4639C16.0801 10.4399 16.0801 10.3919 16.0561 10.3439C16.0321 10.1279 15.9601 9.93592 15.8641 9.74392C15.8521 9.70792 15.8341 9.67192 15.8161 9.63592C15.7981 9.59993 15.7801 9.56393 15.7681 9.52793C15.7201 9.45592 15.6781 9.38392 15.6361 9.31192C15.5941 9.23992 15.5521 9.16792 15.5041 9.09593C15.489 9.05073 15.4645 9.01499 15.4424 8.98277C15.4293 8.96367 15.417 8.9458 15.4081 8.92793C15.3721 8.87992 15.3301 8.82592 15.2881 8.77192C15.2461 8.71792 15.2041 8.66392 15.1681 8.61592C15.1321 8.57992 15.1021 8.53792 15.0721 8.49592C15.0421 8.45393 15.0121 8.41193 14.9761 8.37593C14.9401 8.33992 14.9101 8.30392 14.8801 8.26792C14.8501 8.23193 14.8201 8.19593 14.7841 8.15993C14.5441 7.89593 14.3041 7.65592 14.0881 7.46392C14.0726 7.43293 14.0471 7.41194 14.0181 7.38803C14.0021 7.37492 13.9851 7.36093 13.9681 7.34392C13.8001 7.19992 13.6321 7.05593 13.5121 6.95993C13.4401 6.91193 13.3921 6.86394 13.3441 6.81594L13.3441 6.81593C13.2721 6.76793 13.2241 6.71993 13.2001 6.69593C13.2001 6.67193 13.1761 6.67192 13.1761 6.67192L13.0321 6.62392V5.47192C13.0321 5.27992 12.9601 5.11192 12.8401 4.99192C12.7201 4.87192 12.5521 4.79993 12.3601 4.79993C12.0001 4.79993 11.6881 5.11193 11.6881 5.49593V6.28793L11.6161 6.26392L11.4241 6.21593L11.2561 6.16793L9.93611 5.80793C9.88811 5.78393 9.84011 5.85592 9.86411 5.90392L10.0801 6.28793L10.1521 6.43192C10.1641 6.46792 10.1821 6.50392 10.2001 6.53992C10.2181 6.57593 10.2361 6.61193 10.2481 6.64793C10.2601 6.68393 10.2781 6.71393 10.2961 6.74393C10.3141 6.77393 10.3321 6.80393 10.3441 6.83993C10.4161 6.98392 10.4881 7.1519 10.5601 7.31989L10.5601 7.31993L10.7041 7.67993C10.8241 7.96793 10.9441 8.30393 11.0401 8.63993C11.0803 8.72035 11.1037 8.8176 11.1243 8.90349C11.1283 8.92013 11.1322 8.93634 11.1361 8.95192L11.1601 8.99993C11.2081 9.16793 11.2321 9.31193 11.2561 9.47993C11.2801 9.57593 11.3041 9.69592 11.3041 9.79192C11.3041 9.85192 11.3101 9.91192 11.3161 9.97192C11.3221 10.0319 11.3281 10.0919 11.3281 10.1519C11.3521 10.2719 11.3521 10.3919 11.3521 10.4879C11.3521 10.7759 11.3281 11.0399 11.2801 11.2799L11.2081 11.4959C11.1992 11.5227 11.1869 11.5529 11.1738 11.5851C11.1517 11.6394 11.1272 11.6997 11.1121 11.7599C11.0881 11.8319 11.0641 11.8799 11.0401 11.9279L11.0401 11.9279C10.9201 12.2159 10.7761 12.5279 10.6081 12.7919C10.3681 13.1999 10.1521 13.5359 9.98411 13.7759C9.96011 13.8239 9.93611 13.8479 9.91211 13.8719C9.86411 13.9439 9.91211 14.0399 10.0081 14.0399H11.7121V15.3839H9.98411C9.52811 15.3839 9.09611 15.1439 8.88011 14.7119C8.78411 14.4959 8.73611 14.2559 8.76011 14.0399C8.76011 13.9919 8.71211 13.9199 8.64011 13.9199H5.11211C5.06411 13.9199 5.01611 13.9679 5.01611 14.0159V14.0879C5.01611 16.3199 6.81611 18.1199 9.02411 18.1199H15.2881C16.4454 18.1199 17.1091 17.0601 17.7648 16.0132C17.9521 15.714 18.1388 15.4159 18.3361 15.1439C18.6721 14.6639 19.5121 14.2799 19.7521 14.1839C19.8001 14.1599 19.8241 14.1359 19.8241 14.0879Z" fill="inherit"/>
</svg>
