<svg width="500" height="500" viewBox="0 0 500 500" fill="none" xmlns="http://www.w3.org/2000/svg">
<path d="M82.3456 290.16H64.7456L32.2656 206.48H49.8656L59.9456 232.4L73.5456 267.44L79.9456 250.8L62.6656 206.48H80.4256L90.5056 232.4L103.946 267.44L117.546 232.4L127.626 206.48H145.386L112.906 290.16H95.1456L88.7456 273.68L82.3456 290.16ZM202.346 206.32L235.946 290H219.466L216.746 283.28C210.186 287.6 202.346 290 194.026 290C185.706 290 177.866 287.6 171.466 283.28L168.746 290H152.266L185.866 206.32H202.346ZM194.026 274.64C200.426 274.64 206.346 272.4 210.826 268.72L198.986 239.28L194.026 226.96L177.386 268.72C181.866 272.4 187.626 274.64 194.026 274.64ZM323.787 206.16L293.387 290H275.947L245.547 206.16H262.987L284.747 265.84L306.347 206.16H323.787ZM350.777 273.52H392.057V290H350.777H334.297V273.52V264.72V248.24V222.8V206.32H350.777H389.337V222.8H350.777V248.24H375.257V264.72H350.777V273.52ZM436.803 240.08C451.203 246.16 459.203 252.4 459.203 266.48C459.203 281.68 447.203 290 431.363 290C417.923 290 408.643 284.56 403.203 276.88L415.683 266.8C419.043 271.6 423.523 275.12 430.883 275.12C437.923 275.12 442.403 271.6 442.403 266.8C442.403 261.04 437.763 258.96 430.083 255.6L425.923 253.84C413.763 248.56 405.763 242.16 405.763 228.4C405.763 215.76 415.363 206.16 430.403 206.16C439.843 206.16 447.043 209.2 452.323 216.72L440.323 226.64C437.603 222.48 434.723 220.88 430.403 220.88C425.443 220.88 422.243 224.08 422.243 228.08C422.243 233.2 425.443 235.12 432.643 238.32L436.803 240.08Z" fill="#E9E3DD"/>
</svg>
