<svg xmlns="http://www.w3.org/2000/svg" height="40" viewBox="0 -960 960 960" width="40"><path d="M269.616-33.862q-30.994 0-53.374-22.38-22.38-22.38-22.38-53.374v-740.768q0-30.994 22.38-53.374 22.38-22.38 53.374-22.38h300.768v75.754H269.616v33.333h300.768v66.666H269.616v540.77h420.768V-320h75.754v210.384q0 30.994-22.38 53.374-22.38 22.38-53.374 22.38H269.616Zm0-109.087v33.333h420.768v-33.333H269.616Zm459.718-262.877-192.819-192.58 48.819-48.818 109.072 108.406v-294.515h69.855v294.515l109.073-108.406 48.818 48.818-192.818 192.58ZM269.616-817.051v-33.333 33.333Zm0 674.102v33.333-33.333Z"/></svg>